<svg data-v-423bf9ae="" xmlns="http://www.w3.org/2000/svg" viewBox="0 0 217.13847080410503 60" class="font"><!----><!----><!----><g data-v-423bf9ae="" id="b9fdf92b-0fd5-4fab-9ef2-2ebc9807fea8" fill="white" transform="matrix(4.590665418742173,0,0,4.590665418742173,-4.774293368076229,0.04590736244790605)"><path d="M8.67 1.36L8.67 1.36L8.67 10.50L6.09 10.50L2.90 3.81L2.90 10.50L1.04 10.50L1.04 1.36L3.61 1.36L6.80 8.05L6.80 1.36L8.67 1.36ZM13.97 3.12L13.97 3.12Q14.53 3.12 15.19 3.29Q15.85 3.46 16.42 3.88Q17.00 4.30 17.38 5.03Q17.77 5.75 17.77 6.89L17.77 6.89Q17.77 8.02 17.38 8.75Q17.00 9.48 16.42 9.90Q15.85 10.32 15.19 10.49Q14.53 10.65 13.97 10.65L13.97 10.65Q13.41 10.65 12.75 10.49Q12.10 10.32 11.53 9.90Q10.96 9.48 10.58 8.75Q10.21 8.02 10.21 6.89L10.21 6.89Q10.21 5.75 10.58 5.03Q10.96 4.30 11.53 3.88Q12.10 3.46 12.75 3.29Q13.41 3.12 13.97 3.12ZM13.97 9.25L13.97 9.25Q14.76 9.25 15.28 8.64Q15.81 8.02 15.81 6.89L15.81 6.89Q15.81 5.75 15.28 5.14Q14.76 4.54 13.97 4.54L13.97 4.54Q13.22 4.54 12.70 5.14Q12.18 5.75 12.18 6.89L12.18 6.89Q12.18 7.45 12.32 7.89Q12.46 8.33 12.70 8.63Q12.94 8.93 13.27 9.09Q13.59 9.25 13.97 9.25ZM22.18 9.20L22.18 9.20Q22.58 9.20 22.93 9.13L22.93 9.13Q23.10 9.09 23.27 9.04L23.27 9.04L23.28 10.50Q23.03 10.54 22.75 10.58L22.75 10.58Q22.51 10.61 22.19 10.63Q21.87 10.65 21.50 10.65L21.50 10.65Q20.97 10.60 20.57 10.33L20.57 10.33Q20.22 10.09 19.93 9.63Q19.64 9.16 19.64 8.30L19.64 8.30L19.64 5.36L18.27 5.36L18.27 3.99L19.64 3.99L19.64 1.97L21.50 1.55L21.50 3.99L23.20 3.99L23.20 5.36L21.53 5.36L21.53 8.20Q21.53 8.39 21.58 8.56Q21.63 8.74 21.72 8.88Q21.81 9.02 21.93 9.11Q22.05 9.20 22.18 9.20ZM28.21 10.65L28.21 10.65Q27.05 10.65 26.29 10.35Q25.54 10.04 25.08 9.52Q24.63 9.00 24.44 8.32Q24.26 7.64 24.26 6.89L24.26 6.89Q24.26 6.22 24.44 5.54Q24.63 4.87 25.02 4.33Q25.42 3.79 26.07 3.46Q26.71 3.12 27.64 3.12L27.64 3.12Q28.62 3.12 29.27 3.46Q29.92 3.79 30.31 4.33Q30.70 4.87 30.86 5.54Q31.02 6.22 31.02 6.89L31.02 6.89L31.02 7.52L26.07 7.52Q26.07 8.27 26.61 8.76Q27.15 9.25 28.08 9.25L28.08 9.25Q28.62 9.25 29.06 9.14Q29.51 9.03 29.83 8.89L29.83 8.89Q30.20 8.74 30.51 8.53L30.51 8.53L30.51 10.09Q30.51 10.11 30.32 10.19Q30.14 10.28 29.83 10.38Q29.53 10.49 29.11 10.57Q28.69 10.65 28.21 10.65ZM26.07 6.19L29.25 6.19Q29.25 5.95 29.18 5.66Q29.12 5.38 28.95 5.12Q28.77 4.87 28.45 4.70Q28.14 4.54 27.64 4.54L27.64 4.54Q27.20 4.54 26.90 4.70Q26.60 4.87 26.42 5.12Q26.24 5.38 26.15 5.66Q26.07 5.95 26.07 6.19L26.07 6.19ZM34.51 10.50L32.62 10.50L32.62 3.29L34.51 3.29L34.51 10.50ZM34.61 1.02L34.61 1.02Q34.61 1.47 34.30 1.78Q33.99 2.09 33.56 2.09L33.56 2.09Q33.11 2.09 32.80 1.78Q32.49 1.47 32.49 1.02L32.49 1.02Q32.49 0.59 32.80 0.29Q33.11-0.01 33.56-0.01L33.56-0.01Q33.99-0.01 34.30 0.29Q34.61 0.59 34.61 1.02ZM39.49 3.05L39.49 3.05Q39.21 3.05 39.07 3.14Q38.92 3.23 38.85 3.37Q38.78 3.50 38.77 3.67Q38.75 3.84 38.75 3.99L38.75 3.99L40.01 3.99L39.80 5.36L38.75 5.36L38.75 10.50L36.86 10.50L36.86 5.36L35.85 5.36L35.85 3.99L36.86 3.99L36.86 3.64Q36.86 2.91 37.13 2.48Q37.41 2.04 37.82 1.82Q38.23 1.60 38.71 1.53Q39.19 1.46 39.59 1.47Q40.00 1.48 40.27 1.53Q40.54 1.58 40.54 1.58L40.54 1.58L40.35 3.14Q40.24 3.12 40.10 3.09L40.10 3.09Q39.98 3.08 39.82 3.07Q39.66 3.05 39.49 3.05ZM46.28 3.29L48.34 3.29L45.63 10.32Q45.61 10.35 45.53 10.56Q45.44 10.78 45.26 11.09Q45.08 11.40 44.80 11.74Q44.52 12.08 44.12 12.38Q43.72 12.67 43.20 12.87Q42.67 13.06 42.01 13.06L42.01 13.06L42.01 11.45Q42.42 11.45 42.71 11.28Q43.01 11.10 43.20 10.89L43.20 10.89Q43.43 10.64 43.58 10.32L43.58 10.32L40.85 3.29L42.92 3.29L44.69 8.54L46.28 3.29Z"></path></g><!----><!----></svg>